<?xml version="1.0" encoding="UTF-8" standalone="no"?>
<svg 
    role="img" 
    xmlns="http://www.w3.org/2000/svg" 
    width="20px"
    height="20px"
    viewBox="0 0 1000 1000"
    style="max-width:1.6em; height: auto;">
    
    <path 
        id="path" 
        style="opacity:1;vector-effect:none;fill:#fff;fill-opacity:1;"
        d=" M 607 115C 631 141 646 175 653 210C 653 210 824 210 824 210C 824 210 764 300 764 300C 764 300 654 300 654 300C 635 444 497 526 350 534C 350 534 707 981 707 981C 707 981 553 981 553 981C 553 981 208 549 208 549C 208 549 208 465 208 465C 208 465 294 465 294 465C 472 465 526 365 526 301C 526 300 526 300 526 300C 526 300 175 300 175 300C 175 300 235 210 235 210C 235 210 515 210 515 210C 477 123 381 115 278 115C 278 115 175 115 175 115C 175 115 235 25 235 25C 235 25 824 25 824 25C 824 25 764 115 764 115C 764 115 607 115 607 115"
        transform="">
    </path>    
</svg>
