<?xml version="1.0" encoding="UTF-8" standalone="no"?>
<svg 
    role="img" 
    xmlns="http://www.w3.org/2000/svg" 
    width="20px"
    height="20px"
    viewBox="0 0 1000 1000"
    style="max-width:1.6em; height: auto;">
    
    <path 
        id="path" 
        style="opacity:1;vector-effect:none;fill:#fff;fill-opacity:1;"
        d=" M 592 59C 592 59 592 59 592 59C 592 59 685 249 685 249C 685 249 895 280 895 280C 934 285 965 312 977 348C 989 386 978 425 952 452C 952 452 800 599 800 599C 800 599 835 809 835 809C 835 809 835 809 835 809C 841 846 827 885 795 908C 777 920 757 927 736 927C 721 927 705 923 689 916C 689 916 689 915 689 915C 689 915 501 817 501 817C 501 817 313 915 313 915C 313 915 313 915 313 915C 279 933 239 930 207 908C 207 908 207 907 207 907C 207 907 207 907 207 907C 176 885 161 847 167 809C 167 809 167 809 167 809C 167 809 203 599 203 599C 203 599 51 452 51 452C 51 452 50 452 50 452C 24 425 14 385 25 349C 25 349 25 348 25 348C 25 348 26 348 26 348C 38 312 69 285 108 280C 108 280 317 249 317 249C 317 249 410 59 410 59C 410 59 410 59 410 59C 428 25 462 3 501 3C 540 3 575 26 592 59C 592 59 592 59 592 59M 500 78C 500 78 500 740 500 740C 510 740 521 743 531 747C 531 747 531 748 531 748C 531 748 723 848 723 848C 727 851 731 851 736 851C 741 851 747 850 751 847C 751 847 751 846 751 846C 751 846 751 846 751 846C 759 841 763 832 761 821C 761 821 725 608 725 608C 721 586 729 564 743 549C 743 549 744 549 744 549C 744 549 899 398 899 398C 906 391 909 381 906 372C 906 372 905 372 905 372C 905 372 905 371 905 371C 902 362 895 355 885 354C 885 354 885 354 885 354C 885 354 670 322 670 322C 647 319 630 306 620 287C 620 287 620 287 620 287C 620 287 524 93 524 93C 519 82 512 78 501 78C 501 78 500 78 500 78C 500 78 500 78 500 78"
        transform="">
    </path>    
</svg>
